<svg data-name="Layer 1" xmlns="http://www.w3.org/2000/svg" width="16" height="16"><path d="M3 3.105a6.99 6.99 0 000 9.79z" fill="#74bd59" opacity=".6"/><path d="M13 3.105v9.79a6.99 6.99 0 000-9.79z" fill="#74bd59" opacity=".7"/><path d="M12 2.26a6.98 6.98 0 00-8 0v11.48a6.98 6.98 0 008 0z" fill="#f98b9e" opacity=".6"/><path d="M11.992 8.154a2.59 2.59 0 00-.417-1.633 1.497 1.497 0 00-1.235-.511c-.03 0-.057.01-.087.011-.045-.002-.086-.011-.133-.011a1.812 1.812 0 00-.46.058 1.673 1.673 0 00-.802.482 1.709 1.709 0 00-.188.28 1.328 1.328 0 00-.472-.585 1.717 1.717 0 00-.935-.235c-.035 0-.07.011-.105.013-.04-.002-.073-.013-.115-.013a1.695 1.695 0 00-.424.053 1.434 1.434 0 00-.393.166 1.562 1.562 0 00-.34.28c-.027.03-.045.074-.07.106L5.86 6H4.764l.002 5h1.097l-.028-2.055a5.81 5.81 0 01.062-.909 2.09 2.09 0 01.21-.668 1.014 1.014 0 01.39-.412 1.138 1.138 0 01.458-.124.79.79 0 01.65.333 1.897 1.897 0 01.233 1.042L7.843 11h1.078l-.005-2.253a4.386 4.386 0 01.07-.831 1.77 1.77 0 01.22-.605 1.01 1.01 0 01.391-.368 1.156 1.156 0 01.432-.111.8.8 0 01.654.333 1.883 1.883 0 01.236 1.042L10.925 11h1.073z" fill="#231f20" opacity=".7"/></svg>