<svg xmlns="http://www.w3.org/2000/svg" width="12" height="12"><g transform="scale(.75)"><mask id="a"><path fill="#fff" transform="translate(-1 -1)" d="M0 0h16v16H0z"/><path transform="translate(9.5 9.5)" d="M0 0h8v8H0z"/><path d="M9.5 0h12v6h-12z"/></mask><g fill="#FFB600" fill-opacity=".8" fill-rule="evenodd" mask="url(#a)"><path d="M2 2h12v3H2zM2 6.5h12v3H2zM2 11h12v3H2z"/></g><path fill="#7F8B91" fill-opacity=".9" fill-rule="evenodd" d="M14.288 13.388l-2.831 2.831-1.082-1.082 2.831-2.83L11.5 10.6H16v4.5l-1.712-1.712z"/><path fill-rule="evenodd" fill="#74bd59" fill-opacity=".6" d="M12.985 5.849v.001H10.15V2.928a2.925 2.925 0 112.835 2.92z"/><path fill="#231F20" fill-opacity=".7" d="M14.15 2v-.5h-2.5V2h1v2.5h.5V2z"/></g></svg>