<svg xmlns="http://www.w3.org/2000/svg" width="16" height="16" viewBox="0 0 16 16">

    <clipPath id="innerClip">
        <!--
          Everything outside the circle will be
          clipped and therefore invisible.
        -->
        <circle cx="8" cy="8" r="6"/>
    </clipPath>
    <mask id="outerMask">
        <!--
          Everything outside the circle will be
          clipped and therefore invisible.
        -->
        <rect width="16" height="16" fill="white" transform="translate(-1,-1)"/>
        <rect width="8" height="8" fill="black" transform="translate(8,8)"/>
        <!--<circle cx="8" cy="8" r="15" fill="black"/>-->
    </mask>

    <g fill="#DD9547" fill-opacity=".8" fill-rule="evenodd" mask="url(#outerMask)">

        <rect width="14" height="3" transform="translate(1 1)"/>

        <rect width="14" height="3" transform="translate(1 6.5)"/>

        <rect width="14" height="3" transform="translate(1 12)"/>

    </g>


    <path  fill-rule="evenodd" transform="scale(.5)rotate(180,8,8)translate(-16,-16)"
           fill="#62B543" fill-opacity=".6" d="M12.9969818,6.69999695 L13,6.69999695 L13,13 L6.50616488,12.9999971 C6.50411014,12.999999 6.50205518,13 6.5,13 C2.91014913,13 0,10.0898509 0,6.5 C0,2.91014913 2.91014913,0 6.5,0 C10.0898509,0 13,2.91014913 13,6.5 C13,6.56690657 12.9989891,6.63357703 12.9969818,6.69999695 Z"/>

    <polygon fill="#231F20" fill-opacity=".7"
             points="5.5 1 5.5 0 .5 0 .5 1 2.5 1 2.5 6 3.5 6 3.5 1"
             transform="translate(11 11.4)scale(.5)"/>

</svg>
