<svg xmlns="http://www.w3.org/2000/svg" width="12" height="12"><mask id="a"><path fill="#fff" transform="translate(-1 -1)" d="M0 0h12v12H0z"/><circle cx="9" cy="9" r="3.5"/></mask><g mask="url(#a)"><circle cx="4" cy="6" r="4" fill="#74bd59" fill-opacity=".7"/><text x="2" y="12" fill="#231f20" opacity=".7" transform="scale(.7)">n</text></g><g fill="#6E6E6E" fill-rule="evenodd"><path d="M9.2 12a2.8 2.8 0 110-5.6 2.8 2.8 0 010 5.6zm0-.6a2.2 2.2 0 100-4.4 2.2 2.2 0 000 4.4z"/><path d="M8.8 6.8h.8v1.6h-.8zM6.8 8.8h1.6v.8H6.8zM10 8.8h1.6v.8H10zM8.8 10h.8v1.6h-.8z"/></g></svg>