<svg xmlns="http://www.w3.org/2000/svg" width="12" height="12" viewBox="0 0 12 12">

    <g transform="scale(.75)">

        <mask id="outerMask">
            <!--
              Everything outside the circle will be
              clipped and therefore invisible.
            -->
            <rect width="16" height="16" fill="white" transform="translate(-1,-1)"/>
            <rect width="8" height="8" fill="black" transform="translate(9.5,9.5)"/>
            <rect width="12" height="6" fill="black" x="9.5" y="0"/>

        </mask>

        <g fill="#FFB600" fill-opacity=".6" fill-rule="evenodd" mask="url(#outerMask)">

            <rect width="12" height="3" transform="translate(2 2)"/>

            <rect width="12" height="3" transform="translate(2 6.5)"/>

            <rect width="12" height="3" transform="translate(2 11)"/>

        </g>


        <!-- The arrow -->
        <path fill="#AFB1B3" fill-opacity=".9" fill-rule="evenodd"
              transform="translate(7,7)scale(.9)"
              d="M8.09788148,7.09788148 L4.95208153,10.2436814 L3.75,9.04159991 L6.89579995,5.89579995 L5,4 L10,4 L10,9 L8.09788148,7.09788148 Z"/>

        <!-- The green modifier -->
        <path fill-rule="evenodd" transform="scale(.5)translate(8,8)rotate(90,8,8)translate(-8,-8)scale(.9)"
              fill="#74bd59" fill-opacity=".6"
              d="M12.9969818,6.69999695 L13,6.69999695 L13,13 L6.50616488,12.9999971 C6.50411014,12.999999 6.50205518,13 6.5,13 C2.91014913,13 0,10.0898509 0,6.5 C0,2.91014913 2.91014913,0 6.5,0 C10.0898509,0 13,2.91014913 13,6.5 C13,6.56690657 12.9989891,6.63357703 12.9969818,6.69999695 Z"/>

        <!-- The T on the modifier -->
        <polygon fill="#231F20" fill-opacity=".7"
                 points="5.5 1 5.5 0 .5 0 .5 1 2.5 1 2.5 6 3.5 6 3.5 1"
                 transform="translate(11.4 1.5)scale(.5)"/>

    </g>


</svg>
